<svg width="18" height="19" viewBox="0 0 18 19" fill="none" xmlns="http://www.w3.org/2000/svg">
<path d="M0.428711 9.50014C0.428711 4.76621 4.26621 0.928711 9.00014 0.928711C13.7341 0.928711 17.5716 4.76621 17.5716 9.50014C17.5716 14.2341 13.7341 18.0716 9.00014 18.0716C4.26621 18.0716 0.428711 14.2341 0.428711 9.50014ZM9.20478 10.123C10.2669 10.3844 10.5851 10.7309 10.5851 11.3159C10.5851 11.9237 10.1762 12.3837 9.20478 12.4576V10.123ZM8.563 8.81121C7.65442 8.58371 7.31335 8.20335 7.31335 7.68621C7.31335 7.16942 7.74514 6.698 8.56335 6.59585L8.563 8.81121ZM9.20478 8.96443V6.59585C9.93192 6.68657 10.443 7.10121 10.5169 7.81728H11.6984C11.653 6.528 10.6248 5.67585 9.20478 5.56192V4.60228H8.563V5.56192C7.13157 5.67014 6.10943 6.5105 6.10943 7.783C6.10943 8.93585 6.88764 9.58371 8.33014 9.91871L8.563 9.9755V12.4519C7.64871 12.3555 7.21693 11.8669 7.11478 11.2023H5.93907C5.97835 12.5655 7.1205 13.3776 8.563 13.4859V14.4398H9.20478V13.4859C10.6534 13.3834 11.7894 12.5941 11.7894 11.2023C11.7894 9.99264 10.9716 9.37907 9.47764 9.03264L9.20478 8.96443Z" fill="#06172C"/>
</svg>
