<svg width="30" height="33" viewBox="0 0 30 33" fill="none" xmlns="http://www.w3.org/2000/svg">
<path d="M15.8375 0.68125C15.575 0.5625 15.2938 0.5 15 0.5C14.7063 0.5 14.425 0.5625 14.1625 0.68125L2.39378 5.675C1.01878 6.25625 -0.00622157 7.6125 2.84281e-05 9.25C0.0312784 15.45 2.58128 26.7938 13.35 31.95C14.3938 32.45 15.6063 32.45 16.65 31.95C27.4188 26.7938 29.9688 15.45 30 9.25C30.0063 7.6125 28.9813 6.25625 27.6063 5.675L15.8375 0.68125ZM9.05628 18.3875C9.35628 18.4625 9.67503 18.5 10 18.5C12.2063 18.5 14 16.7062 14 14.5V10.5H16.7625C17.5188 10.5 18.2125 10.925 18.55 11.6062L19 12.5H23C23.55 12.5 24 12.95 24 13.5V15.5C24 18.2625 21.7625 20.5 19 20.5H16V23.6688C16 24.125 15.6313 24.5 15.1688 24.5C15.0563 24.5 14.9438 24.475 14.8438 24.4312L8.67503 21.7875C8.26253 21.6125 8.00003 21.2063 8.00003 20.7625C8.00003 20.5875 8.03753 20.4188 8.11878 20.2625L9.05628 18.3875ZM9.00003 10.5H12V14.5C12 15.6062 11.1063 16.5 10 16.5C8.89378 16.5 8.00003 15.6062 8.00003 14.5V11.5C8.00003 10.95 8.45003 10.5 9.00003 10.5ZM17 13.5C17 13.2348 16.8947 12.9804 16.7071 12.7929C16.5196 12.6054 16.2652 12.5 16 12.5C15.7348 12.5 15.4805 12.6054 15.2929 12.7929C15.1054 12.9804 15 13.2348 15 13.5C15 13.7652 15.1054 14.0196 15.2929 14.2071C15.4805 14.3946 15.7348 14.5 16 14.5C16.2652 14.5 16.5196 14.3946 16.7071 14.2071C16.8947 14.0196 17 13.7652 17 13.5Z" fill="#06172C"/>
</svg>
