<svg width="19" height="16" viewBox="0 0 19 16" fill="none" xmlns="http://www.w3.org/2000/svg">
<path d="M18.25 5.9375C18.25 6.37015 18.1217 6.79308 17.8813 7.15281C17.641 7.51254 17.2993 7.79292 16.8996 7.95849C16.4999 8.12405 16.0601 8.16737 15.6357 8.08297C15.2114 7.99856 14.8216 7.79022 14.5157 7.4843C14.2098 7.17837 14.0014 6.78859 13.917 6.36426C13.8326 5.93993 13.8759 5.50009 14.0415 5.10038C14.2071 4.70067 14.4875 4.35903 14.8472 4.11866C15.2069 3.8783 15.6299 3.75 16.0625 3.75C16.6427 3.75 17.1991 3.98047 17.6093 4.39071C18.0195 4.80094 18.25 5.35734 18.25 5.9375ZM5.125 5.9375C5.125 5.50485 4.99671 5.08192 4.75634 4.72219C4.51598 4.36246 4.17433 4.08208 3.77462 3.91651C3.37491 3.75095 2.93507 3.70763 2.51074 3.79203C2.08641 3.87644 1.69663 4.08478 1.3907 4.39071C1.08478 4.69663 0.876438 5.08641 0.792033 5.51074C0.707628 5.93507 0.750948 6.37491 0.916515 6.77462C1.08208 7.17433 1.36246 7.51597 1.72219 7.75634C2.08192 7.99671 2.50485 8.125 2.9375 8.125C3.51766 8.125 4.07406 7.89453 4.4843 7.4843C4.89453 7.07406 5.125 6.51766 5.125 5.9375ZM6.6875 4.375C7.12015 4.375 7.54308 4.24671 7.90281 4.00634C8.26254 3.76598 8.54292 3.42433 8.70849 3.02462C8.87405 2.62491 8.91737 2.18507 8.83297 1.76074C8.74856 1.33641 8.54022 0.946632 8.2343 0.640705C7.92837 0.334778 7.53859 0.126438 7.11426 0.0420332C6.68993 -0.042372 6.25009 0.000947807 5.85038 0.166515C5.45067 0.332081 5.10903 0.612459 4.86866 0.972191C4.6283 1.33192 4.5 1.75485 4.5 2.1875C4.5 2.76766 4.73047 3.32406 5.14071 3.7343C5.55094 4.14453 6.10734 4.375 6.6875 4.375ZM12.3125 4.375C12.7451 4.375 13.1681 4.24671 13.5278 4.00634C13.8875 3.76598 14.1679 3.42433 14.3335 3.02462C14.4991 2.62491 14.5424 2.18507 14.458 1.76074C14.3736 1.33641 14.1652 0.946632 13.8593 0.640705C13.5534 0.334778 13.1636 0.126438 12.7393 0.0420332C12.3149 -0.042372 11.8751 0.000947807 11.4754 0.166515C11.0757 0.332081 10.734 0.612459 10.4937 0.972191C10.2533 1.33192 10.125 1.75485 10.125 2.1875C10.125 2.76766 10.3555 3.32406 10.7657 3.7343C11.1759 4.14453 11.7323 4.375 12.3125 4.375ZM14.1188 9.12969C13.8013 8.95455 13.5215 8.71853 13.2953 8.43514C13.0692 8.15174 12.9011 7.82654 12.8008 7.47813C12.593 6.76348 12.1588 6.13557 11.5636 5.68878C10.9684 5.24199 10.2443 5.00044 9.5 5.00044C8.75575 5.00044 8.0316 5.24199 7.43638 5.68878C6.84116 6.13557 6.40703 6.76348 6.19922 7.47813C5.99848 8.17919 5.52787 8.77202 4.89063 9.12656C4.27931 9.45735 3.79573 9.98249 3.51635 10.6189C3.23698 11.2554 3.17776 11.9668 3.34807 12.6407C3.51837 13.3146 3.90848 13.9124 4.4567 14.3397C5.00491 14.767 5.67993 14.9994 6.375 15C6.79153 15.0012 7.20399 14.918 7.5875 14.7555C8.81021 14.2512 10.1828 14.2512 11.4055 14.7555C12.1461 15.0776 12.9826 15.1004 13.7397 14.8193C14.4968 14.5382 15.1156 13.9749 15.4665 13.2475C15.8173 12.5201 15.873 11.6851 15.6217 10.9175C15.3705 10.15 14.8318 9.50957 14.1188 9.13047V9.12969Z" fill="white"/>
</svg>
