<svg width="16" height="14" viewBox="0 0 16 14" fill="none" xmlns="http://www.w3.org/2000/svg">
<path d="M11.4483 0.110352C10.0628 0.110352 8.8331 0.657248 8 1.59725C7.1669 0.657248 5.93724 0.110352 4.55172 0.110352C3.34498 0.111812 2.18808 0.591836 1.33478 1.44513C0.481484 2.29843 0.00146007 3.45533 0 4.66208C0 9.65104 7.29724 13.6372 7.60759 13.8048C7.72819 13.8698 7.86302 13.9038 8 13.9038C8.13698 13.9038 8.27181 13.8698 8.39241 13.8048C8.70276 13.6372 16 9.65104 16 4.66208C15.9985 3.45533 15.5185 2.29843 14.6652 1.44513C13.8119 0.591836 12.655 0.111812 11.4483 0.110352ZM11.0697 9.92828C10.1092 10.7433 9.08238 11.4769 8 12.1214C6.91762 11.4769 5.89085 10.7433 4.93034 9.92828C3.43586 8.64621 1.65517 6.69104 1.65517 4.66208C1.65517 3.89386 1.96034 3.15711 2.50355 2.6139C3.04676 2.0707 3.78351 1.76552 4.55172 1.76552C5.77931 1.76552 6.8069 2.4138 7.23379 3.45794C7.29593 3.61015 7.40199 3.74041 7.53845 3.8321C7.67491 3.92379 7.83559 3.97275 8 3.97275C8.1644 3.97275 8.32508 3.92379 8.46155 3.8321C8.59801 3.74041 8.70407 3.61015 8.76621 3.45794C9.1931 2.4138 10.2207 1.76552 11.4483 1.76552C12.2165 1.76552 12.9532 2.0707 13.4964 2.6139C14.0397 3.15711 14.3448 3.89386 14.3448 4.66208C14.3448 6.69104 12.5641 8.64621 11.0697 9.92828Z" fill="#06172C"/>
</svg>
