<svg width="24" height="20" viewBox="0 0 24 20" fill="none" xmlns="http://www.w3.org/2000/svg">
<path d="M17 0C14.991 0 13.2081 0.792981 12.0001 2.15595C10.7921 0.792981 9.00918 0 7.00023 0C5.2505 0.00211705 3.57303 0.698135 2.33578 1.93539C1.09853 3.17264 0.402508 4.8501 0.400391 6.59984C0.400391 13.8337 10.9811 19.6135 11.4311 19.8565C11.606 19.9507 11.8015 20 12.0001 20C12.1987 20 12.3942 19.9507 12.5691 19.8565C13.0191 19.6135 23.5998 13.8337 23.5998 6.59984C23.5977 4.8501 22.9017 3.17264 21.6644 1.93539C20.4272 0.698135 18.7497 0.00211705 17 0Z" fill="#FF1C7B"/>
</svg>
