<svg width="16" height="14" viewBox="0 0 16 14" fill="none" xmlns="http://www.w3.org/2000/svg">
<path d="M11.4483 0.110352C10.0628 0.110352 8.8331 0.657248 8 1.59725C7.1669 0.657248 5.93724 0.110352 4.55172 0.110352C3.34498 0.111812 2.18808 0.591836 1.33478 1.44513C0.481484 2.29843 0.00146007 3.45533 0 4.66208C0 9.65104 7.29724 13.6372 7.60759 13.8048C7.72819 13.8698 7.86302 13.9038 8 13.9038C8.13698 13.9038 8.27181 13.8698 8.39241 13.8048C8.70276 13.6372 16 9.65104 16 4.66208C15.9985 3.45533 15.5185 2.29843 14.6652 1.44513C13.8119 0.591836 12.655 0.111812 11.4483 0.110352Z" fill="#FF1C7B"/>
</svg>
