<svg width="20" height="18" viewBox="0 0 20 18" fill="none" xmlns="http://www.w3.org/2000/svg">
<path fill-rule="evenodd" clip-rule="evenodd" d="M20 9.2807C20 9.61224 19.8683 9.9302 19.6339 10.1646C19.3994 10.3991 19.0815 10.5308 18.7499 10.5308H4.2658L9.63276 15.8977C9.85358 16.1347 9.97379 16.4481 9.96807 16.772C9.96236 17.0958 9.83117 17.4048 9.60213 17.6339C9.3731 17.8629 9.0641 17.9941 8.74025 17.9998C8.4164 18.0055 8.10297 17.8853 7.866 17.6645L0.365587 10.1641C0.13149 9.92969 0 9.61197 0 9.2807C0 8.94943 0.13149 8.63171 0.365587 8.39732L7.866 0.896906C8.10297 0.676094 8.4164 0.555882 8.74025 0.561594C9.0641 0.567308 9.3731 0.698503 9.60213 0.927538C9.83117 1.15657 9.96236 1.46556 9.96807 1.78942C9.97379 2.11327 9.85358 2.4267 9.63276 2.66367L4.2658 8.03063L18.7499 8.03063C19.0815 8.03063 19.3994 8.16234 19.6339 8.39677C19.8683 8.6312 20 8.94916 20 9.2807Z" fill="black"/>
</svg>
