<svg width="12" height="15" viewBox="0 0 12 15" fill="none" xmlns="http://www.w3.org/2000/svg">
<path d="M11.4375 5.4375C11.4375 2.43937 8.99813 0 6 0C3.00187 0 0.5625 2.43937 0.5625 5.4375C0.5625 8.20281 2.6375 10.4928 5.3125 10.8316V11.8125H4.1875C4.00516 11.8125 3.8303 11.8849 3.70136 12.0139C3.57243 12.1428 3.5 12.3177 3.5 12.5C3.5 12.6823 3.57243 12.8572 3.70136 12.9861C3.8303 13.1151 4.00516 13.1875 4.1875 13.1875H5.3125V14.3125C5.3125 14.4948 5.38493 14.6697 5.51386 14.7986C5.6428 14.9276 5.81766 15 6 15C6.18234 15 6.3572 14.9276 6.48614 14.7986C6.61507 14.6697 6.6875 14.4948 6.6875 14.3125V13.1875H7.8125C7.99484 13.1875 8.1697 13.1151 8.29864 12.9861C8.42757 12.8572 8.5 12.6823 8.5 12.5C8.5 12.3177 8.42757 12.1428 8.29864 12.0139C8.1697 11.8849 7.99484 11.8125 7.8125 11.8125H6.6875V10.8316C9.3625 10.4928 11.4375 8.20281 11.4375 5.4375ZM1.9375 5.4375C1.9375 3.1975 3.76 1.375 6 1.375C8.24 1.375 10.0625 3.1975 10.0625 5.4375C10.0625 7.6775 8.24 9.5 6 9.5C3.76 9.5 1.9375 7.6775 1.9375 5.4375Z" fill="#06172C"/>
</svg>
